<?xml version="1.0" encoding="utf-8"?>
<!-- Generator: Adobe Illustrator 24.0.2, SVG Export Plug-In . SVG Version: 6.00 Build 0)  -->
<svg version="1.1" id="Layer_1" xmlns="http://www.w3.org/2000/svg" xmlns:xlink="http://www.w3.org/1999/xlink" x="0px" y="0px"
	 viewBox="0 0 768.63 556.07" style="enable-background:new 0 0 768.63 556.07;" xml:space="preserve">
<style type="text/css">
	.st0{fill:#343a40;}
	.st1{fill:#FFFFFF;}
</style>
<rect class="st0" width="768.63" height="556.07"/>
<g>
	<g>
		<polygon class="st1" points="106.49,240.72 11.05,148.57 145.77,128.03 204.44,7.38 244.06,94.72 233.76,99.39 204.09,33.97
			153.34,138.31 35.34,156.3 118.65,236.75 98.11,355.74 189.39,291.63 195.89,300.88 82.34,380.63 		"/>
		<polygon class="st1" points="84.85,376.66 108.43,240.09 14.92,149.8 146.98,129.67 204.39,11.62 241.68,93.83 234.66,97.01
			204.14,29.73 152.14,136.68 31.47,155.07 116.72,237.38 95.6,359.7 188.95,294.14 193.38,300.45 		"/>
	</g>
	<g>
		<path class="st1" d="M180.73,272.46V142.54h-18.42l9.02-15.03h28.46c10.17,0,19.75,1.9,28.46,5.66
			c8.69,3.75,16.4,8.94,22.91,15.45c6.51,6.51,11.71,14.22,15.45,22.91c3.75,8.71,5.66,18.29,5.66,28.46
			c0,13.01-3.26,25.24-9.7,36.34c-6.44,11.1-15.33,20-26.43,26.43c-11.1,6.44-23.33,9.7-36.35,9.7H180.73z M199.79,257.42
			c10.44,0,20.17-2.58,28.93-7.66c8.75-5.08,15.77-12.13,20.86-20.96c5.08-8.83,7.66-18.53,7.66-28.83c0-7.75-1.56-15.31-4.63-22.47
			c-3.08-7.17-7.15-13.31-12.09-18.25c-4.94-4.94-11.08-9.01-18.25-12.09c-7.16-3.08-14.72-4.63-22.47-4.63h-4.02v114.89H199.79z"/>
		<path class="st1" d="M172.35,129.3h27.44c9.98,0,19.23,1.84,27.75,5.51c8.52,3.67,15.97,8.7,22.35,15.07
			c6.37,6.38,11.4,13.82,15.07,22.35c3.67,8.52,5.51,17.77,5.51,27.75c0,12.75-3.15,24.56-9.46,35.44
			c-6.31,10.88-14.9,19.47-25.78,25.78c-10.88,6.31-22.69,9.46-35.44,9.46h-17.25V140.74h-17.05L172.35,129.3z M199.79,259.22
			c10.81,0,20.75-2.63,29.83-7.9c9.08-5.26,16.25-12.47,21.52-21.62c5.26-9.15,7.9-19.05,7.9-29.73c0-8.04-1.59-15.76-4.78-23.18
			c-3.19-7.41-7.35-13.68-12.47-18.81c-5.13-5.13-11.4-9.28-18.81-12.47c-7.42-3.19-15.14-4.78-23.18-4.78h-5.82v118.49H199.79z"/>
		<path class="st1" d="M321.6,274.95c-12.64,0-23.69-4.65-32.87-13.83c-9.18-9.17-13.83-20.23-13.83-32.87
			c0-12.92,4.66-24.05,13.84-33.09c9.17-9.03,20.23-13.61,32.86-13.61c12.48,0,23.39,4.45,32.47,13.23l14.23-13.28v93.25
			l-14.22-13.03C345,270.5,334.08,274.95,321.6,274.95z M321.6,196.58c-9.01,0-16.38,2.99-22.53,9.14
			c-6.06,6.06-9.14,13.64-9.14,22.53c0,9.01,2.99,16.38,9.14,22.53c6.15,6.15,13.52,9.14,22.53,9.14c8.75,0,16.29-3.11,22.42-9.24
			c6.13-6.13,9.24-13.68,9.24-22.42c0-8.74-3.11-16.29-9.24-22.42C337.89,199.69,330.35,196.58,321.6,196.58z"/>
		<path class="st1" d="M354.03,259.22c-9.01,9.29-19.82,13.93-32.43,13.93c-12.2,0-22.73-4.43-31.6-13.3
			c-8.87-8.87-13.3-19.4-13.3-31.6c0-12.47,4.43-23.07,13.3-31.8c8.87-8.73,19.4-13.1,31.6-13.1c12.61,0,23.42,4.65,32.43,13.93
			l12.47-11.64v85.02L354.03,259.22z M321.6,194.78c-9.43,0-17.36,3.22-23.8,9.67c-6.44,6.44-9.67,14.38-9.67,23.8
			c0,9.43,3.22,17.36,9.67,23.8c6.44,6.44,14.38,9.67,23.8,9.67c9.28,0,17.18-3.25,23.7-9.77c6.51-6.51,9.77-14.41,9.77-23.7
			c0-9.28-3.26-17.18-9.77-23.7C338.78,198.04,330.88,194.78,321.6,194.78z"/>
		<path class="st1" d="M412.23,326.71c-12.48,0-22.49-5.22-29.74-15.52l-1.01-1.43l11.87-8.83l1.05,1.58
			c4.12,6.17,9.95,9.18,17.83,9.18c6.46,0,11.5-2.05,15.41-6.28c3.94-4.27,5.86-9.17,5.86-14.99v-22.23
			c-6.02,4.36-12.95,6.56-20.65,6.56c-10.01,0-18.56-3.46-25.39-10.3c-6.83-6.83-10.3-15.37-10.3-25.39v-55.22h15.03v55.22
			c0,5.78,2.03,10.56,6.21,14.61c4.19,4.07,8.92,6.04,14.44,6.04c6.05,0,10.89-2.02,14.8-6.19c3.94-4.2,5.85-8.93,5.85-14.46v-55.22
			h15.03V290.4c0,10.01-3.57,18.65-10.61,25.7C430.88,323.14,422.24,326.71,412.23,326.71z"/>
		<path class="st1" d="M383.96,310.15l8.94-6.65c4.43,6.65,10.88,9.98,19.33,9.98c6.93,0,12.51-2.29,16.73-6.86
			c4.22-4.57,6.34-9.98,6.34-16.21v-25.98c-6.38,5.68-13.86,8.52-22.45,8.52c-9.56,0-17.6-3.25-24.11-9.77
			c-6.52-6.51-9.77-14.55-9.77-24.11v-53.42h11.43v53.42c0,6.24,2.25,11.54,6.76,15.9c4.5,4.37,9.73,6.55,15.69,6.55
			c6.51,0,11.88-2.25,16.11-6.76c4.22-4.5,6.34-9.73,6.34-15.69v-53.42h11.43V290.4c0,9.56-3.36,17.7-10.08,24.42
			c-6.72,6.72-14.86,10.08-24.43,10.08C400.31,324.91,390.89,319.99,383.96,310.15z"/>
		<path class="st1" d="M496.63,274.53c-9.94,0-18.92-3.14-26.69-9.33c-7.76-6.18-12.94-14.2-15.38-23.83l-0.43-1.69l14.3-4.13
			l0.43,1.84c1.56,6.63,4.98,12.02,10.16,16.04c5.19,4.03,11.11,6.07,17.61,6.07c8.16,0,14.78-2.71,20.23-8.29
			c5.38-5.51,8.12-12.26,8.12-20.05c0-6.89-1.97-12.84-5.84-17.69c-3.89-4.86-8.95-8.11-15.05-9.67l-16.22-4.16
			c-8.27-2.18-15.07-6.7-20.21-13.44c-5.14-6.73-7.75-14.48-7.75-23.02c0-10.43,3.71-19.42,11.03-26.74
			c7.32-7.32,16.31-11.02,26.74-11.02c6.66,0,13.02,1.73,18.88,5.13c5.85,3.4,10.51,7.99,13.85,13.63l0.93,1.58l-13.14,7.39
			l-0.89-1.56c-4.27-7.5-10.69-11.15-19.64-11.15c-6.34,0-11.6,2.24-16.07,6.83c-4.48,4.61-6.66,9.81-6.66,15.89
			c0,5.32,1.58,9.92,4.81,14.07c3.23,4.14,7.13,6.72,11.9,7.88l16.24,4.16c9.37,2.45,17.15,7.64,23.12,15.41
			c5.97,7.77,9,16.67,9,26.46c0,12.09-4.31,22.45-12.8,30.8C518.71,270.31,508.42,274.53,496.63,274.53z"/>
		<path class="st1" d="M467.11,237.81c1.66,7.07,5.26,12.75,10.81,17.05c5.54,4.3,11.78,6.44,18.71,6.44
			c8.59,0,15.76-2.94,21.51-8.83c5.75-5.89,8.63-12.99,8.63-21.31c0-7.34-2.08-13.62-6.24-18.81c-4.16-5.2-9.49-8.63-16.01-10.29
			l-16.21-4.16c-7.9-2.08-14.31-6.34-19.23-12.78c-4.92-6.44-7.38-13.75-7.38-21.93c0-9.98,3.5-18.46,10.5-25.46
			c7-7,15.49-10.5,25.46-10.5c6.37,0,12.37,1.63,17.98,4.89c5.61,3.26,10.01,7.59,13.2,12.99l-9.98,5.61
			c-4.57-8.04-11.64-12.06-21.2-12.06c-6.79,0-12.58,2.46-17.36,7.38c-4.78,4.92-7.17,10.64-7.17,17.15c0,5.68,1.73,10.74,5.2,15.17
			c3.46,4.44,7.76,7.28,12.89,8.52l16.21,4.16c9.01,2.36,16.39,7.28,22.14,14.76c5.75,7.48,8.63,15.94,8.63,25.36
			c0,11.64-4.09,21.48-12.26,29.52c-8.18,8.04-17.95,12.06-29.31,12.06c-9.56,0-18.08-2.98-25.57-8.94
			c-7.48-5.96-12.4-13.58-14.76-22.87L467.11,237.81z"/>
		<polygon class="st1" points="558.02,272.46 558.02,198.87 542.63,198.87 542.63,183.84 558.02,183.84 558.02,160.61
			573.05,153.23 573.05,183.84 588.22,183.84 588.22,198.87 573.05,198.87 573.05,272.46 		"/>
		<path class="st1" d="M559.82,197.07h-15.38v-11.43h15.38v-23.91l11.43-5.61v29.52h15.17v11.43h-15.17v73.59h-11.43V197.07z"/>
		<path class="st1" d="M637.56,274.95c-12.64,0-23.7-4.65-32.87-13.83c-9.18-9.17-13.83-20.23-13.83-32.87
			c0-12.92,4.66-24.05,13.84-33.09c9.17-9.03,20.23-13.61,32.86-13.61c12.47,0,23.39,4.45,32.47,13.23l14.23-13.28v93.25
			l-14.22-13.03C660.96,270.5,650.04,274.95,637.56,274.95z M637.56,196.58c-9.01,0-16.38,2.99-22.53,9.14
			c-6.06,6.06-9.14,13.64-9.14,22.53c0,8.88,3.08,16.46,9.14,22.53c6.15,6.15,13.52,9.14,22.53,9.14c8.75,0,16.29-3.11,22.42-9.24
			c6.13-6.13,9.24-13.68,9.24-22.42c0-8.74-3.11-16.29-9.24-22.42C653.85,199.69,646.3,196.58,637.56,196.58z"/>
		<path class="st1" d="M669.99,259.22c-9.01,9.29-19.82,13.93-32.43,13.93c-12.2,0-22.73-4.43-31.6-13.3
			c-8.87-8.87-13.3-19.4-13.3-31.6c0-12.47,4.43-23.07,13.3-31.8c8.87-8.73,19.4-13.1,31.6-13.1c12.61,0,23.42,4.65,32.43,13.93
			l12.47-11.64v85.02L669.99,259.22z M637.56,194.78c-9.43,0-17.36,3.22-23.8,9.67c-6.44,6.44-9.67,14.38-9.67,23.8
			c0,9.43,3.22,17.36,9.67,23.8c6.44,6.44,14.38,9.67,23.8,9.67c9.28,0,17.18-3.25,23.7-9.77c6.51-6.51,9.77-14.41,9.77-23.7
			c0-9.28-3.26-17.18-9.77-23.7C654.74,198.04,646.84,194.78,637.56,194.78z"/>
		<path class="st1" d="M693.13,272.46v-90.58l11.23,9.03c6.5-6.22,14.5-9.36,23.83-9.36c4.37,0,8.38,0.75,11.92,2.22l1.8,0.75
			l-6.78,13.3l-1.47-0.49c-1.48-0.49-3.32-0.74-5.46-0.74c-5.92,0-10.62,1.93-14.39,5.89c-3.79,3.99-5.64,8.61-5.64,14.14v55.85
			H693.13z"/>
		<path class="st1" d="M739.41,185.43l-5.2,10.19c-1.66-0.55-3.67-0.83-6.03-0.83c-6.38,0-11.61,2.15-15.69,6.44
			c-4.09,4.3-6.13,9.43-6.13,15.38v54.05h-11.43v-85.02l9.56,7.69c6.37-6.65,14.27-9.98,23.7-9.98
			C732.35,183.35,736.09,184.04,739.41,185.43z"/>
	</g>
</g>
<g>
	<path class="st1" d="M736.98,391.29c-3.62,1.34-6.52,1.76-8.74,1.23c-1.91-0.46-3.42-1.43-4.54-2.92c-1.12-1.49-1.48-3.2-1.06-5.12
		c0.72-3.27,2.62-6.13,5.75-8.54c3.13-2.41,7.77-5.52,14.01-9.25c6.24-3.73,9.6-6.2,9.92-7.55c0.51-2.05,0.34-5.01-0.54-8.89
		c-0.88-3.87-2.29-6.02-4.2-6.42c-0.98-0.24-3.55,0.46-7.64,2.18c-4.09,1.71-8.83,3.9-14.17,6.59c-5.34,2.69-12.63,6.43-21.68,11.38
		c-9.05,4.95-19.66,10.9-31.58,18.06c8.27-7.57,15.31-13.92,20.89-19.17c5.59-5.25,10.02-9.67,13.19-13.32
		c3.18-3.65,4.94-6.24,5.23-7.82c0.44-2.36,0-4.51-1.32-6.44c-1.32-1.93-3.23-3.13-5.72-3.6c-4.06-0.76-9.36,0.3-15.77,3.26
		c-6.41,2.96-13.38,6.93-20.81,11.95c-7.43,5.03-14.11,9.79-20.1,14.24c-5.98,4.45-9.56,6.66-10.9,6.53
		c-1.64-0.16-2.38-1.22-2.21-3.18c0.12-1.38,1.37-3.51,3.79-6.38c2.42-2.87,4.94-5.22,7.56-7.06c4.86-3.2,8.99-6.33,12.35-9.44
		c3.36-3.1,5.17-5.39,5.35-6.91c0.17-1.45-0.52-2.7-2.07-3.74c-1.56-1.04-3.54-1.71-5.94-2c-3.89-0.47-7.75,0.63-11.52,3.27
		c-3.77,2.65-8.7,7.23-14.63,13.8c-3.83,4.57-6.64,8.44-8.48,11.59c-0.86,1.46-1.53,3.08-2.05,4.83c-2.19,1.3-3.67,2.18-4.46,2.64
		c-1.06,0.62-2.25,1.2-3.57,1.74c-1.32,0.54-2.65,0.77-3.97,0.7c-0.59-0.03-1.17-0.06-1.76-0.1c-0.67-0.69-1.35-1.38-2.02-2.07
		c3.25-4.5,5.93-9.34,8-14.54c2.07-5.2,3.22-9.54,3.41-13.03c0.19-3.56-0.26-6.05-1.34-7.47c-1.09-1.42-3.19-2.51-6.3-3.26
		c1.97-1.79,3-3.41,3.07-4.86c0.08-1.89-0.98-3.43-3.2-4.6c-2.22-1.17-5.3-1.85-9.24-2.01c-5.53-0.22-11.56,1.12-17.97,4.04
		c-6.41,2.93-12.35,6.88-17.76,11.85c-5.42,4.96-9.69,10.36-12.88,16.13c-2.69,4.88-4.12,9.36-4.39,13.44
		c-6.78,5.48-12.15,9.73-16.25,12.64c-4.53,3.22-8.2,4.96-11.1,5.18c-4.19,0.32-6.5-2-6.96-7c-0.34-3.7,0.06-7.68,1.21-11.94
		c1.16-4.26,2.96-8.99,5.47-14.17c2.51-5.18,5.72-11.07,9.7-17.65c2.3,0.02,4.26,0.04,5.86,0.07c1.61,0.03,3.19,0.07,4.75,0.11
		c1.56,0.04,3.5,0.09,5.8,0.16c6.67-8.32,12.39-16.32,17.02-24.1c-1.27-0.13-3.04-0.29-5.3-0.47c-2.25-0.18-4.83-0.38-7.73-0.59
		c1.75-2.67,4.38-5.98,7.95-9.91c3.57-3.92,5.38-6.3,5.35-7.18c-0.05-1.82-2.47-2.71-7.26-2.62c-4.79,0.09-9,1.66-12.56,4.67
		c-3.56,3.01-7.42,8.07-11.44,15.21c-1.82,0.09-3.64,0.2-5.46,0.3c-6.52,0.39-11.54,1.11-15.06,2.09c-3.52,0.98-6.42,2.56-8.68,4.75
		c-2.26,2.18-4.54,5.44-6.8,9.77c-2.84,5.12-4.06,8.89-3.77,11.27c0.05,0.43,0.24,0.63,0.57,0.6c0.32-0.04,0.9-0.22,1.73-0.57
		c0.82-0.34,1.71-0.67,2.67-0.99c2.3-0.82,5.86-1.47,10.69-1.89c1.47-0.13,2.74-0.21,3.81-0.27c1.07-0.05,2.22-0.09,3.45-0.11
		c-10.76,16.97-19.4,29.21-26.75,36.54c0.01,0.06,0.01,0.11,0.02,0.17c-4.01,3.94-7.53,7.26-10.59,9.94
		c-3.43,3.01-6.81,5.52-10.16,7.55c-3.36,2.03-6.56,3.3-9.64,3.83c-1.58,0.27-3.75,0.42-6.54,0.47c5.99-5.36,10.9-10.34,14.64-15
		c3.74-4.66,6.49-9.32,8.2-14c1.71-4.68,2.25-9.4,1.57-14.16c-0.46-3.17-1.19-5.97-2.21-8.41c-1.02-2.43-2.4-5.42-4.15-8.97
		c-1.76-3.54-2.75-5.99-2.97-7.36c-0.25-1.58-0.27-2.83-0.08-3.74c-0.36-0.65-0.71-1.3-1.07-1.94c-2.14-0.58-4.09-0.73-5.84-0.47
		c-7.02,1.06-10.64,6.22-10.83,15.33c-6.46,9.15-18.38,25.3-33.48,49.08c0.03,0.15,0.07,0.29,0.1,0.44
		c-5.23,6.04-9.09,10.43-11.73,13.04c-2.84,2.82-5.5,4.57-8.02,5.24c-3.03,0.81-5.05-0.59-6.08-4.24c-0.47-1.68-0.4-4.4,0.26-8.16
		c0.66-3.76,1.67-7.33,3.05-10.7c2.55-6.31,4.86-11.77,6.84-16.39c1.99-4.61,3.33-7.75,3.96-9.44c0.63-1.68,1-3.02,1.09-4.02
		c0.09-0.99-0.04-2.23-0.41-3.72c-0.8-3.25-1.68-5.33-2.64-6.23c-0.95-0.9-2.41-1.12-4.36-0.65c-2.03,0.49-3.93,1.84-5.67,4.04
		c-1.74,2.2-4.87,6.8-9.19,13.84c-1.86,3.06-4.14,7.52-6.75,13.36c-2.61,5.85-5,10.4-7.23,13.66c-3.07,4.34-6.44,9.32-10.05,14.96
		c-3.62,5.64-6.14,9.53-7.7,11.64c-1.56,2.11-2.76,3.31-3.64,3.62c-2.4,0.83-4.13-0.21-5.19-3.16c-0.77-2.12-1.19-5.45-1.23-9.99
		c4.79-6.69,8.94-13.15,12.4-19.43c3.46-6.27,5.88-11.38,7.15-15.34c1.27-3.96,1.74-6.57,1.35-7.82c-0.2-0.63-1.53-0.89-4.01-0.79
		c-2.48,0.11-4.99,0.56-7.52,1.36c-3.48,1.1-5.88,2.21-7.21,3.29c-1.33,1.09-2.52,2.73-3.54,4.91c-1.03,2.19-2.28,4.88-3.73,8.08
		c-2.46,5.24-4.4,9.87-5.87,13.88c-1.47,4.01-2.47,7.62-3.03,10.82c-0.57,3.2-0.69,5.99-0.41,8.37c0.29,2.38,0.96,4.93,2.01,7.65
		c1.6,4.15,3.73,7.8,6.36,10.97c2.63,3.18,5.47,5.42,8.52,6.75c3.05,1.33,5.89,1.53,8.57,0.58c3.39-1.19,6.75-5.47,10.32-12.84
		c3.58-7.37,8.49-19.39,15.52-35.96c-1.73,9.74-2.73,17.13-3.19,22.17c-0.46,5.04-0.24,8.88,0.57,11.53
		c2.17,6.96,6.21,9.5,12.19,7.76c2.64-0.77,5.16-2.43,7.62-5c2.46-2.57,5.24-6.11,8.42-10.62c3.02-4.27,7.62-10.96,14.08-19.89
		c0.9,2.95,1.87,5.4,2.92,7.32c1.58,2.93,4.51,5.69,8.72,8.35c7.14,4.41,14.01,5.97,20.87,4.69c5.33-1,11.25-4.43,18-10.24
		c6.75-5.81,14.32-13.85,23.05-24.05c0-0.02,0-0.04-0.01-0.06c0.34-0.37,0.69-0.74,1.04-1.11c0.83-0.87,1.61-1.69,2.35-2.47
		c0.73-0.78,1.53-1.63,2.41-2.57c0.88-0.94,1.81-1.9,2.81-2.88c-2.29,7.78-3.75,13.58-4.5,17.4c-0.74,3.82-0.94,7.07-0.62,9.74
		c0.47,3.98,1.88,7.11,4.2,9.42c2.32,2.31,5.11,3.29,8.42,2.96c9.23-0.89,22.1-12.06,41.14-32.69c0.61,3.61,1.68,6.97,3.2,10.06
		c2.26,4.6,5.14,8.2,8.66,10.83c3.51,2.63,7.33,3.94,11.52,3.94c7.41,0,15.95-5.48,26.32-16.3c5.75,0.52,10.19,0.18,13.35-1.1
		c2.5-1.01,5.7-2.89,9.61-5.59c-0.19,5.59,0.66,10.61,2.53,15.06c2.02,4.83,4.35,7.36,7.06,7.6c1.36,0.12,2.77-0.48,4.27-1.8
		c1.49-1.32,4.01-3.99,7.61-7.96c3.6-3.98,6.86-7.15,9.72-9.52c10.31-8.46,17.55-13.8,21.26-16.32c3.71-2.51,6.48-3.62,8.24-3.34
		c1.6,0.25,2.3,1.1,2.08,2.54c-0.18,1.23-0.56,2.09-1.12,2.59c-7.01,7.73-12.3,14.24-16.06,19.41c-3.75,5.18-5.72,8.87-6,11.03
		c-0.68,5.35,0.93,8.27,4.83,8.82c3.6,0.51,7.81-1.14,12.75-4.92c2.57-2.02,6.08-4.78,10.61-8.25c4.53-3.46,10.35-7.39,17.56-11.69
		c7.21-4.3,15.5-8.52,24.93-12.57c-3.58,3.37-7.49,7.1-11.7,11.22c-4.21,4.12-7.59,7.72-10.19,10.75c-2.6,3.04-4.59,5.72-5.98,8.05
		c-1.39,2.32-2.31,4.7-2.77,7.13c-0.47,2.51-0.08,4.75,1.16,6.74c1.24,1.99,3.01,3.22,5.32,3.7c2.61,0.54,6.07,0.18,10.45-1.04
		c4.38-1.22,9.71-3.31,16.08-6.2c6.37-2.89,13.62-6.35,21.85-10.28c0.66-2.5,1.32-5,1.98-7.5
		C746.44,387.41,740.61,389.95,736.98,391.29z M441.98,383.91c-3.89-3.93-6.88-6.5-8.88-7.73c-2-1.23-5.4-1.85-10.19-1.79
		c12.41-17.47,21.33-28.9,25.39-34.76c1.67,5.11,3.31,10.23,4.93,15.34c0.18,0.56,0.34,1.13,0.48,1.69c0.14,0.57,0.27,1.21,0.4,1.93
		c1.04,6.03,0.44,11.01-1.74,14.96C450.18,377.51,446.71,380.95,441.98,383.91z M588.68,346.94c-2.17,4.71-3.26,9.37-3.34,13.95
		c-0.05,3.13,0.56,6.42,1.81,9.88c-7.94,5.18-13.42,7.85-16.71,7.84c-7.03-0.01-10.59-2.34-10.69-7.15
		c-0.01-0.66,0.86-5.07,2.69-13.25c1.05-3.07,3.18-6.13,6.42-9.15c3.25-3.02,7.25-5.98,12.04-8.85c4.79-2.87,10.61-6.02,17.53-9.38
		C594.07,336.85,590.85,342.24,588.68,346.94z"/>
	<path class="st1" d="M695.17,484.82c-0.28,1.47,4.69,0.41-9.48,4.18c-13.36,3.31-29.27,9.75-38.96,15.08
		c-9.7,5.32-14.84,9.54-15.43,12.65c-0.28,1.47,0.78,2.34,3.17,2.62c1.91,0.22,7.2-1.22,15.87-4.32c8.66-3.1,18.98-6.21,30.95-9.3
		c11.97-3.09,4.56-1.92,20.4-4.19c14.92-2.56,10.54-2.64,16.64-4.45c6.09-1.82,12.31-6.19,18.64-13.12
		c6.33-6.93,10.81-17.26,13.41-30.99c1.6-8.42-6.62-15.74-24.64-21.96c-18.03-6.22-44.28-11.34-78.75-15.37
		c-57.69-6.73-61.14-8.41-158.9-1.14c-97.76,7.27-219.7,103.74-253.96,104.81c-5.82,0.29-10.86-0.76-15.11-3.16
		c-4.26-2.4-7.57-5.93-9.94-10.6c-2.37-4.67-4.29-21.61-4.65-28.73c-0.62-12.33,6.49-40.26,14.35-56.93
		c7.86-16.67,17.9-32.96,30.12-48.85c12.21-15.89,24.26-29.08,36.14-39.56c11.88-10.48,20.85-15.87,26.93-16.18
		c2.17-0.11,3.83,0.48,4.99,1.77c1.15,1.29,1.79,3.2,1.92,5.71c0.31,6.08-2.23,14.02-7.61,23.82c-5.38,9.8-11.39,18.83-18.03,27.09
		c-6.64,8.26-10.69,12.42-12.17,12.5c-0.52,0.03-0.8-0.31-0.83-1c-0.02-0.43,0.37-1.63,1.19-3.59c0.82-1.95,1.2-3.32,1.16-4.11
		c-0.03-0.52-0.35-0.77-0.95-0.74c-1.22,0.06-4.78,3.18-10.69,9.35c-5.91,6.17-11.32,12.91-16.22,20.21
		c-4.9,7.3-7.22,13.42-6.97,18.37c0.14,2.69,1.41,5.04,3.82,7.05c2.41,2.01,4.96,2.95,7.65,2.81c3.99-0.2,10.35-4.07,19.07-11.6
		c8.72-7.53,17.79-17.15,27.21-28.86c9.42-11.7,17.17-23.73,23.25-36.1c6.08-12.36,8.87-23.45,8.38-33.26
		c-0.26-5.21-1.32-9.77-3.17-13.68c-1.85-3.91-4.35-6.83-7.49-8.76c-3.15-1.93-6.89-2.79-11.23-2.57
		c-4.26,0.21-9.56,1.57-15.92,4.07c-6.36,2.5-13.2,6.15-20.54,10.96c-7.33,4.81-15.45,11.33-24.35,19.57
		c-8.9,8.24-17.86,17.94-26.87,29.1c-8.68,10.8-16.2,21.05-22.54,30.77c-6.35,9.72-11.64,19.11-15.88,28.15
		c-4.24,9.05-10.87,31.38-12.91,40.14c-2.04,8.77-2.87,17.01-2.48,24.74c0.49,9.81,3.19,29.26,6.98,36.25
		c3.79,6.99,9.14,12.18,16.06,15.58c6.92,3.39,13.59,4.93,24.44,4.38c10.85-0.55,41.08-13.64,56.64-22.81
		c21.47-11.49,106.12-55.28,256.42-52.28S695.17,484.82,695.17,484.82z"/>
</g>
<g>
	<path class="st0" d="M476.33,447.25c1.39-0.21,2.78-0.41,4.17-0.6c0.28,1,0.68,2,1.21,3.01c0.53,1.01,1.39,2.04,2.57,3.1
		c1.19,1.05,2.89,2.02,5.09,2.91c2.2,0.9,4.95,1.15,8.26,0.78c2.61-0.29,4.71-1.09,6.3-2.41c1.6-1.32,2.32-2.95,2.16-4.88
		c-0.11-1.33-0.65-2.38-1.62-3.13c-0.86-0.76-2.01-1.33-3.47-1.69c-1.46-0.36-4.08-0.69-7.89-0.92c-2-0.12-3.63-0.22-4.89-0.31
		c-1.26-0.09-2.2-0.18-2.83-0.28c-1.49-0.27-3.54-0.92-6.16-1.93c-2.62-1.02-4.18-3.27-4.63-6.8c-0.4-3.14,0.71-5.94,3.39-8.38
		c2.67-2.43,6.29-3.95,10.81-4.49c1.45-0.17,2.63-0.26,3.55-0.25c0.7,0.04,1.4,0.09,2.09,0.14c1.71,0.13,3.16,0.42,4.34,0.86
		c1.21,0.37,2.96,1.22,5.21,2.56c0.39-1.38,0.78-2.76,1.18-4.13c1.31-0.12,2.62-0.23,3.94-0.34c0.29,4.63,0.6,9.26,0.91,13.89
		c-1.32,0.11-2.64,0.23-3.96,0.35c-0.57-1.22-1.15-2.44-1.73-3.65c-0.66-1.07-1.5-2.02-2.53-2.86c-1.02-0.84-2.43-1.6-4.24-2.3
		c-1.81-0.69-4.27-0.87-7.4-0.5c-2.81,0.33-5.03,1.14-6.65,2.39c-1.62,1.26-2.33,2.73-2.13,4.41c0.14,1.19,0.62,2.14,1.44,2.84
		c0.81,0.6,2.13,1.1,3.96,1.51c0.91,0.13,2.01,0.27,3.3,0.42c1.29,0.14,2.91,0.3,4.86,0.47c1.81,0.13,3.61,0.28,5.41,0.43
		c1.32,0.15,2.19,0.28,2.62,0.38c0.43,0.1,0.96,0.24,1.59,0.43c0.28,0.08,0.83,0.26,1.65,0.54c1.53,0.49,2.94,1.51,4.23,3.04
		c1.29,1.53,1.99,3.34,2.14,5.41c0.24,3.48-0.92,6.34-3.44,8.61c-2.53,2.28-6.05,3.64-10.63,4.14c-1.25,0.14-2.11,0.21-2.59,0.21
		c-0.48,0-1.14-0.04-1.96-0.12c-1.39-0.12-2.9-0.36-4.55-0.73c-1.65-0.36-2.83-0.7-3.54-1.01c-0.71-0.32-1.8-0.93-3.27-1.84
		c-0.23,1.54-0.46,3.08-0.68,4.62c-1.22,0.17-2.43,0.35-3.65,0.53C477.61,456.87,476.96,452.06,476.33,447.25z"/>
	<path class="st0" d="M529.78,418.67c7.92-0.38,15.82-0.6,23.71-0.66c-0.02,1.3-0.03,2.6-0.04,3.9c-1.52,0.01-3.04,0.03-4.56,0.05
		c-1.37,0.02-2.24,0.21-2.63,0.57c-0.39,0.36-0.58,1.19-0.58,2.5c0.03,8.06,0.09,16.13,0.19,24.19c0.01,0.63,0.02,1.27,0.02,1.9
		c0.04,0.18,0.23,0.42,0.56,0.73c0.41,0.24,1.21,0.35,2.39,0.33c1.48-0.02,2.96-0.04,4.44-0.05c0,1.3,0,2.6,0,3.9
		c-7.38,0.06-14.78,0.28-22.19,0.64c-0.05-1.3-0.11-2.6-0.16-3.9c1.39-0.07,2.78-0.13,4.18-0.19c1.45-0.06,2.34-0.26,2.68-0.61
		c0.34-0.35,0.5-1.19,0.46-2.53c-0.02-0.65-0.03-1.3-0.05-1.95c-0.19-7.41-0.34-14.82-0.47-22.23c-0.01-0.58-0.02-1.16-0.03-1.74
		c0-0.25-0.18-0.52-0.54-0.83c-0.43-0.27-1.35-0.37-2.74-0.32c-1.51,0.06-3.03,0.13-4.54,0.2
		C529.85,421.28,529.82,419.98,529.78,418.67z"/>
	<path class="st0" d="M608.12,420.2c1.44,0.13,2.88,0.26,4.32,0.4c-0.55,4.84-1.08,9.68-1.61,14.52c-1.42-0.14-2.85-0.27-4.27-0.39
		c-0.24-2.11-0.58-3.74-1.02-4.87c-0.44-1.13-1.42-2.59-2.96-4.36c-1.54-1.77-4.18-2.79-7.91-3.04c-4.07-0.26-7.44,0.95-10.04,3.58
		c-2.6,2.64-4.02,6.39-4.27,11.24c-0.25,4.76,0.82,8.63,3.14,11.63c2.32,3,5.45,4.61,9.45,4.87c2.36,0.15,4.47-0.29,6.35-1.34
		c1.88-1.05,2.9-2.33,3.04-3.87c0.09-1.03,0.19-2.06,0.28-3.08c0.12-1.36,0.02-2.22-0.32-2.58c-0.34-0.36-1.27-0.6-2.79-0.72
		c-1.2-0.09-2.41-0.18-3.62-0.26c0.1-1.26,0.2-2.52,0.3-3.78c6.87,0.49,13.72,1.11,20.54,1.85c-0.15,1.24-0.29,2.48-0.44,3.72
		c-1.29-0.14-2.58-0.27-3.87-0.4c-0.85-0.09-1.43,0.06-1.73,0.44c-0.3,0.38-0.52,1.2-0.65,2.46c-0.43,4.07-0.84,8.14-1.25,12.2
		c-1.19-0.11-2.37-0.22-3.56-0.33c-0.47-1.4-0.94-2.8-1.41-4.2c-0.8,0.54-1.59,1.09-2.39,1.63c-2.96,1.75-6.46,2.48-10.57,2.22
		c-5.84-0.36-10.48-2.34-13.98-6.02c-3.5-3.68-5.21-8.36-5-14.08c0.22-5.92,2.39-10.73,6.59-14.36c4.2-3.62,9.48-5.28,15.71-4.89
		c2.4,0.15,4.38,0.56,5.95,1.23c1.57,0.66,2.73,1.28,3.49,1.85c0.76,0.57,1.78,1.53,3.07,2.87
		C607.17,422.97,607.64,421.59,608.12,420.2z"/>
	<path class="st0" d="M632.04,457.21c1.79,0.25,3.58,0.51,5.37,0.77c0.68,0.1,1.18-0.03,1.49-0.39c0.31-0.36,0.56-1.13,0.75-2.32
		c1.27-7.96,2.57-15.92,3.9-23.87c0.1-0.57,0.19-1.15,0.29-1.72c0.02-0.35-0.09-0.64-0.32-0.88c-0.24-0.23-0.52-0.39-0.86-0.48
		c-0.34-0.09-0.67-0.17-1.01-0.26c-1.71-0.25-3.43-0.5-5.14-0.74c0.2-1.29,0.4-2.57,0.6-3.86c5.25,0.73,10.48,1.53,15.69,2.41
		c6.04,10.76,11.71,21.62,17,32.55c1.57-7.14,3.16-14.27,4.79-21.39c0.29-1.27,0.37-2.08,0.26-2.43c-0.03-0.37-0.35-0.63-0.93-0.79
		c-1.58-0.33-3.17-0.65-4.75-0.97c0.27-1.27,0.55-2.54,0.82-3.82c5.66,1.13,11.29,2.34,16.9,3.64c-0.31,1.26-0.63,2.53-0.94,3.79
		c-1.51-0.35-3.02-0.69-4.53-1.03c-0.91-0.2-1.44-0.21-1.6-0.03c-0.17,0.32-0.35,0.64-0.52,0.96c-0.13,0.56-0.26,1.13-0.4,1.69
		c-2.35,10.06-4.64,20.14-6.88,30.22c-2.1-0.46-4.2-0.9-6.3-1.34c-5.49-11.4-11.39-22.73-17.71-33.94
		c-1.33,7.65-2.62,15.31-3.89,22.97c-0.1,0.59-0.2,1.18-0.3,1.77c-0.06,0.35,0.01,0.65,0.21,0.91c0.2,0.26,0.62,0.45,1.27,0.55
		c1.53,0.25,3.06,0.51,4.58,0.77c-0.23,1.28-0.46,2.56-0.68,3.84c-5.88-1.02-11.79-1.94-17.72-2.76
		C631.67,459.79,631.85,458.5,632.04,457.21z"/>
	<path class="st0" d="M698.9,459.62c1.31,0.35,2.61,0.7,3.92,1.06c-0.14,1.02-0.17,2.1-0.09,3.24c0.07,1.14,0.44,2.42,1.08,3.84
		c0.65,1.43,1.78,2.97,3.38,4.65c1.6,1.67,3.94,2.96,7.01,3.9c2.43,0.74,4.59,0.81,6.52,0.2c1.93-0.61,3.2-1.82,3.8-3.66
		c0.42-1.27,0.34-2.44-0.23-3.51c-0.46-1.03-1.27-2-2.43-2.9c-1.15-0.9-3.36-2.2-6.64-3.88c-1.73-0.88-3.13-1.6-4.21-2.17
		c-1.08-0.57-1.88-1.02-2.39-1.35c-1.22-0.82-2.78-2.21-4.71-4.16c-1.93-1.95-2.43-4.63-1.48-8.05c0.85-3.05,2.91-5.2,6.22-6.41
		c3.3-1.21,7.09-1.21,11.31,0.04c1.36,0.4,2.44,0.78,3.25,1.13c0.6,0.31,1.2,0.62,1.8,0.93c1.47,0.78,2.65,1.61,3.52,2.47
		c0.94,0.81,2.16,2.26,3.64,4.37c0.88-1.12,1.76-2.24,2.65-3.35c1.21,0.4,2.43,0.8,3.64,1.2c-1.53,4.38-3.06,8.76-4.57,13.15
		c-1.22-0.41-2.44-0.81-3.66-1.2c-0.04-1.34-0.08-2.69-0.12-4.03c-0.18-1.24-0.56-2.44-1.14-3.6c-0.59-1.16-1.54-2.41-2.88-3.75
		c-1.34-1.33-3.46-2.45-6.37-3.31c-2.62-0.78-4.9-0.89-6.82-0.36c-1.92,0.53-3.11,1.62-3.59,3.24c-0.34,1.15-0.27,2.21,0.18,3.18
		c0.49,0.87,1.46,1.84,2.93,2.92c0.75,0.47,1.67,1.03,2.77,1.66c1.09,0.63,2.47,1.4,4.13,2.31c1.55,0.82,3.1,1.65,4.64,2.48
		c1.11,0.64,1.84,1.1,2.19,1.36c0.34,0.26,0.76,0.59,1.24,1.01c0.21,0.18,0.63,0.56,1.26,1.13c1.17,1.04,2.03,2.52,2.58,4.43
		c0.55,1.91,0.48,3.84-0.19,5.81c-1.13,3.3-3.27,5.49-6.39,6.61c-3.12,1.13-6.78,1.02-11.02-0.28c-1.16-0.35-1.95-0.62-2.38-0.8
		c-0.43-0.18-0.99-0.47-1.69-0.87c-1.18-0.65-2.43-1.45-3.74-2.42c-1.32-0.97-2.23-1.73-2.74-2.3c-0.51-0.57-1.23-1.55-2.18-2.96
		c-0.8,1.33-1.59,2.66-2.38,3.99c-1.14-0.31-2.28-0.62-3.42-0.92C696.35,468.98,697.62,464.3,698.9,459.62z"/>
</g>
</svg>
